# xmcd
#
# Track frame offsets:
#	150
#	20897
#	41269
#	61279
#	78336
#	94869
#	112799
#	132224
#	149055
#	166081
#	183085
#	200545
#	213661
#	230707
#	244090
#	259788
#	275781
#	291865
#	306274
#	324542
#
# Disc length: 4520 seconds
#
# Revision: 0
# Processed by: cddbd v1.5.2PL0 Copyright (c) Steve Scherf et al.
# Submitted via: dBpowerAMP V4.0
#
DISCID=2b11a614
DTITLE=Various Artist - ERG Nu Country Traxx Vol. 186 CAN
DYEAR=2009
DGENRE=Country
TTITLE0=Brad Paisley - American Saturday Night
TTITLE1=Carrie Underwood - Temporary Home
TTITLE2=George Canyon ft. Crystal Shawanda - In Your Arms Again
TTITLE3=Montgomery Gentry - Oughta Be More Songs About That
TTITLE4=Victoria Banks - Kiss Me
TTITLE5=Keith Urban - 'Til Summer Comes Around
TTITLE6=Lee Ann Womack - There Is A God
TTITLE7=Billy Currington - That's How Country Boys Roll
TTITLE8=Toby Keith - Cryin' For Me (Wayman's Song)
TTITLE9=Blake Shelton ft. Trace Adkins - Hillbilly Bone
TTITLE10=Love And Theft - Runaway
TTITLE11=Joe Nichols - Gimme That Girl
TTITLE12=Johnny Reid - Old Flame
TTITLE13=Randy Houser - Whistlin' Dixe
TTITLE14=Chris Young - The Man I Want To Be
TTITLE15=Jessie Farrell - Nobody Says No
TTITLE16=Rodney Atkins - Chasing Girls
TTITLE17=Gretchen Wilson - Work Hard, Play Harder
TTITLE18=Sugarland - Gold and Green
TTITLE19=Codie Prevost - Santa's Got A New Ride
EXTD=
EXTT0=
EXTT1=
EXTT2=
EXTT3=
EXTT4=
EXTT5=
EXTT6=
EXTT7=
EXTT8=
EXTT9=
EXTT10=
EXTT11=
EXTT12=
EXTT13=
EXTT14=
EXTT15=
EXTT16=
EXTT17=
EXTT18=
EXTT19=
PLAYORDER=
